<?xml version="1.0" standalone="no"?>
<!DOCTYPE svg PUBLIC "-//W3C//DTD SVG 20010904//EN"
 "http://www.w3.org/TR/2001/REC-SVG-20010904/DTD/svg10.dtd">
<svg version="1.0" xmlns="http://www.w3.org/2000/svg"
 width="372.000000pt" height="372.000000pt" viewBox="0 0 372.000000 372.000000"
 preserveAspectRatio="xMidYMid meet">
<metadata>
Created by potrace 1.11, written by Peter Selinger 2001-2013
</metadata>
<g transform="translate(0.000000,372.000000) scale(0.100000,-0.100000)"
fill="#000000" stroke="none">
<path d="M660 2640 l0 -1080 553 0 c625 0 624 0 693 -70 136 -137 66 -369
-121 -405 -11 -2 -269 -4 -572 -4 l-553 -1 0 -240 0 -241 603 4 c331 1 613 6
626 10 282 78 461 246 542 507 34 108 34 293 0 400 -76 246 -257 424 -501 494
-80 23 -101 24 -462 25 l-328 1 0 840 0 840 -240 0 -240 0 0 -1080z"/>
<path d="M1260 2941 l0 -779 313 -5 c285 -4 318 -6 387 -26 298 -89 514 -308
591 -598 27 -100 33 -272 14 -369 -17 -88 -65 -212 -109 -283 -127 -203 -360
-360 -576 -388 -25 -3 -52 -7 -60 -9 -8 -1 -273 -3 -587 -3 l-573 -1 0 -240 0
-241 598 2 c651 1 694 4 872 59 336 104 633 356 790 670 60 120 111 281 128
403 9 67 9 307 0 372 -39 275 -169 536 -368 736 -86 87 -190 174 -230 192 -8
4 -28 16 -45 26 -158 102 -416 175 -627 180 l-38 1 0 540 0 540 -240 0 -240 0
0 -779z"/>
</g>
</svg>
