<?xml version="1.0" standalone="no"?>
<!DOCTYPE svg PUBLIC "-//W3C//DTD SVG 20010904//EN"
 "http://www.w3.org/TR/2001/REC-SVG-20010904/DTD/svg10.dtd">
<svg version="1.0" xmlns="http://www.w3.org/2000/svg"
 width="440.000000pt" height="440.000000pt" viewBox="0 0 440.000000 440.000000"
 preserveAspectRatio="xMidYMid meet">
<metadata>
Created by potrace 1.11, written by Peter Selinger 2001-2013
</metadata>
<g transform="translate(0.000000,440.000000) scale(0.100000,-0.100000)"
fill="#000000" stroke="none">
<path d="M0 3200 l0 -1000 200 0 200 0 1 -32 c2 -89 17 -267 24 -277 2 -4 6
-27 10 -51 17 -124 111 -424 128 -413 6 3 7 1 3 -5 -4 -7 -1 -24 7 -39 8 -16
27 -53 42 -83 40 -80 116 -208 137 -230 10 -11 18 -22 18 -25 0 -14 105 -141
192 -232 115 -120 299 -269 393 -318 17 -9 44 -25 60 -35 37 -24 107 -55 118
-52 4 1 7 -2 7 -6 0 -23 303 -131 435 -156 181 -34 225 -38 395 -40 197 -1
278 5 410 31 19 4 42 8 50 9 97 15 301 88 455 163 251 123 440 271 647 506 93
106 245 345 232 366 -4 7 -3 9 3 6 25 -15 164 346 187 484 3 19 10 57 15 86
20 105 26 181 26 348 -1 194 -11 293 -45 440 -6 28 -13 58 -15 68 -9 40 -78
233 -106 295 -109 240 -238 427 -435 626 -72 74 -251 216 -272 216 -5 0 -12 3
-14 8 -4 10 -53 43 -108 74 -25 14 -61 34 -80 45 -134 75 -398 163 -580 194
-179 30 -519 33 -645 5 -11 -2 -44 -7 -72 -11 -29 -4 -53 -10 -53 -14 0 -3
-13 -6 -28 -7 -16 -1 -89 -20 -163 -44 -243 -79 -532 -244 -705 -405 l-69 -63
-3 284 -2 284 -500 0 -500 0 0 -1000z"/>
</g>
</svg>
